<svg xmlns="http://www.w3.org/2000/svg" width="24" height="24" viewBox="0 0 24 24"
  fill="none" stroke="white" stroke-width="1.8" stroke-linecap="round" stroke-linejoin="round">

  <!-- Outer gear with rectangular-style teeth -->
  <path d="
    M12 2.8
    L13.6 2.8
    L14.2 5
    A7 7 0 0 1 16.4 6.1
    L18.3 4.9
    L19.5 6.1
    L18.3 8
    A7 7 0 0 1 19.4 10.2
    L21.6 10.8
    L21.6 13.2
    L19.4 13.8
    A7 7 0 0 1 18.3 16
    L19.5 17.9
    L18.3 19.1
    L16.4 17.9
    A7 7 0 0 1 14.2 19
    L13.6 21.2
    L10.4 21.2
    L9.8 19
    A7 7 0 0 1 7.6 17.9
    L5.7 19.1
    L4.5 17.9
    L5.7 16
    A7 7 0 0 1 4.6 13.8
    L2.4 13.2
    L2.4 10.8
    L4.6 10.2
    A7 7 0 0 1 5.7 8
    L4.5 6.1
    L5.7 4.9
    L7.6 6.1
    A7 7 0 0 1 9.8 5
    L10.4 2.8
    Z" />

  <!-- Inner circle -->
  <circle cx="12" cy="12" r="3"/>

</svg>