<svg xmlns="http://www.w3.org/2000/svg" width="24" height="24" viewBox="0 0 24 24"
  fill="none" stroke="currentColor" stroke-width="1.8" stroke-linecap="round" stroke-linejoin="round">
  <path d="M12 15.5a3.5 3.5 0 1 0 0-7 3.5 3.5 0 0 0 0 7z"/>
  <path d="M19.4 12a7.6 7.6 0 0 0-.08-1.08l1.54-1.17-1.8-3.12-1.85.74a7.6 7.6 0 0 0-1.86-1.08L14.1 3h-3.6L9.65 5.29a7.6 7.6 0 0 0-1.86 1.08l-1.85-.74-1.8 3.12 1.54 1.17A7.6 7.6 0 0 0 5.6 12c0 .37.03.74.08 1.08l-1.54 1.17 1.8 3.12 1.85-.74c.56.44 1.18.8 1.86 1.08L10.9 21h3.6l.85-2.29c.68-.28 1.3-.64 1.86-1.08l1.85.74 1.8-3.12-1.54-1.17c.05-.34.08-.71.08-1.08z"/>
</svg>