<!-- phone.svg (ещё более геометричный/минималистичный, ровные линии) -->
<svg xmlns="http://www.w3.org/2000/svg" viewBox="0 0 24 24" fill="none">
  <path
    d="M9.7 4.2c.35-1.05 1.5-1.6 2.55-1.25l1.55.52c.88.3 1.38 1.22 1.14 2.12l-.55 2.02c-.17.63.05 1.3.58 1.7l2.15 1.62c.55.42 1.3.44 1.88.05l1.72-1.16c.86-.58 2.03-.37 2.62.48l.86 1.24c.58.86.46 2.03-.3 2.74l-1.07 1.01c-.98.92-2.38 1.29-3.7.98-3.23-.75-6.9-3.26-9.34-5.71C6.9 8.32 4.4 4.65 3.65 1.42c-.31-1.32.06-2.72.98-3.7l1.01-1.07"
    opacity="0"
  />
  <path
    d="M8.95 4.85c.3-.9 1.3-1.37 2.2-1.07l1.55.52c.75.25 1.18 1.04.98 1.8l-.58 2.12c-.28 1.02.07 2.1.88 2.71l1.92 1.45c.85.65 2.02.68 2.9.09l1.8-1.22c.72-.49 1.7-.31 2.2.41l.9 1.3c.47.7.37 1.64-.24 2.23l-1.06 1.02c-.83.8-2 .11-3.12.85-3.1-.72-6.67-3.16-9.03-5.52C6.06 8.17 3.62 4.6 2.9 1.5c-.26-1.12.05-2.29.85-3.12L4.77-2.68"
    opacity="0"
  />
  <path
    d="M9.25 5.1c.27-.8 1.13-1.22 1.93-.95l1.6.53c.67.23 1.06.94.88 1.63l-.62 2.26c-.25.93.07 1.92.82 2.49l2.06 1.57c.78.6 1.86.62 2.67.07l1.92-1.32c.64-.44 1.53-.28 1.97.36l1 1.45c.43.63.34 1.49-.22 2.02l-1.14 1.08c-.9.86-2.19 1.2-3.4.92-3.14-.73-6.84-3.25-9.29-5.7C6.46 8.16 3.94 4.46 3.21 1.32c-.28-1.21.06-2.5.92-3.4l1.08-1.14"
    stroke="currentColor"
    stroke-width="1.8"
    stroke-linecap="round"
    stroke-linejoin="round"
  />
</svg>