<svg xmlns="http://www.w3.org/2000/svg" width="64" height="64" viewBox="0 0 64 64" fill="none">
  <defs>
    <linearGradient id="m" x1="18" y1="10" x2="50" y2="52" gradientUnits="userSpaceOnUse">
      <stop stop-color="#D7E2FF"/>
      <stop offset="1" stop-color="#9FB6FF"/>
    </linearGradient>
    <filter id="s" x="-20%" y="-20%" width="140%" height="140%">
      <feDropShadow dx="0" dy="2" stdDeviation="2" flood-color="#000000" flood-opacity="0.35"/>
    </filter>
  </defs>
  <g filter="url(#s)">
    <path d="M42.5 11.2c-10.2 2.1-17.9 11.2-17.9 22.1S32.3 53.3 42.5 55.4c-4.2 2.1-9 2.7-13.6 1.6C18.1 54.3 11 45.1 11 33.3 11 21.5 18.1 12.3 28.9 9.6c4.6-1.1 9.4-.5 13.6 1.6Z" fill="url(#m)"/>
    <g fill="#EAF0FF" opacity="0.95">
      <path d="M50 20l1.6 3.6L55 25l-3.4 1.4L50 30l-1.6-3.6L45 25l3.4-1.4L50 20Z"/>
      <path d="M52 36l1.1 2.5L55.5 39l-2.4 1L52 42.5 50.9 40 48.5 39l2.4-.5L52 36Z" opacity="0.9"/>
      <path d="M18 18l1.2 2.8L22 22l-2.8 1.2L18 26l-1.2-2.8L14 22l2.8-1.2L18 18Z" opacity="0.85"/>
    </g>
  </g>
</svg>
